DBRep_DrawableShape

CASCADE Topology V1, (c) Matra-Datavision
Locations 2
1
              1               0               0               0 
              0               1               0               0 
              0               0               1            0.01 
2  1 -1 0
Curve2ds 8
1 6.2831853071795862 0 0 -1 
1 3.1415926535897931 0 0 -1 
1 3.4033920413889422 0 0 -1 
1 0 0 1 0 
1 0 -0.01 1 0 
1 6.0213859193804371 0 0 -1 
1 0 0 1 0 
1 0 -0.01 1 0 
Curves 8
1 0.050000000000000003 0 0 0 0 1 
1 0.14999999999999999 0 0 0 0 1 
1 0.050000000000000003 0 0 1 0 0 
1 0.14488887394336025 0.038822856765378111 0 0 0 1 
2 0 0 0 -0 -0 1 -1 0 0 -0 -1 -0 0.14999999999999999
1 0.04829629131445342 0.012940952255126037 0 0 0 1 
1 0.14488887394336025 0.038822856765378111 0 -0.96592582628906831 -0.25881904510252074 0 
2 0 0 0 -0 -0 -1 1 0 -0 0 -1 0 0.050000000000000003
Polygon3D 0
PolygonOnTriangulations 0
Surfaces 5
1 0.050000000000000003 0 0 0 1 0 1 0 0 0 0 -1 
2 0 0 0 0 -0 -1 1 0 -0 0 -1 0 0.050000000000000003
2 0 0 0 -0 0 -1 -1 0 0 -0 -1 -0 0.14999999999999999
1 0.14488887394336025 0.038822856765378111 0 0.25881904510252074 -0.96592582628906831 0 -0.96592582628906831 -0.25881904510252074 0 0 -0 -1 
1 0.10352396743241604 0.013629188872633792 0 0 0 1 1 0 -0 -0 1 0 
Triangulations 0

TShapes 26
Ve
1e-07
0.05 0 0
0 0

0101101
*
Ed
 1e-07 1 1 0
1  1 0 0 0.01
2  1 2 0 0 0.01
0

0101000
+26 0 -26 1 *
Ve
1e-07
0.15 0 0
0 0

0101101
*
Ed
 1e-07 1 1 0
1  2 0 0 0.01
2  2 3 0 0 0.01
0

0101000
+24 0 -24 1 *
Ed
 1e-07 1 1 0
1  3 0 0 0.1
0

0101000
+26 0 -24 0 *
Wi

0101100
+25 0 -23 0 -22 0 +22 1 *
Fa
0  1e-07 1 0

0101000
+21 0 *
Ve
1e-07
0.14488887394336 0.0388228567653781 0
0 0

0101101
*
Ed
 1e-07 1 1 0
1  4 0 0 0.01
2  3 3 0 0 0.01
0

0101000
+19 0 -19 1 *
Ed
 1e-07 1 1 0
1  5 0 3.14159265358979 3.40339204138894
2  4 3 0 3.14159265358979 3.40339204138894
2  5 3 2 3.14159265358979 3.40339204138894
0

0101000
+24 0 -19 0 *
Wi

0101100
+23 0 -18 0 -17 0 +17 1 *
Fa
0  1e-07 3 0

0101000
+16 0 *
Ve
1e-07
0.0482962913144534 0.012940952255126 0
0 0

0101101
*
Ed
 1e-07 1 1 0
1  6 0 0 0.01
2  6 2 0 0 0.01
0

0101000
+14 0 -14 1 *
Ed
 1e-07 1 1 0
1  7 0 0 0.1
0

0101000
+19 0 -14 0 *
Wi

0101100
+18 0 -13 0 -12 0 +12 1 *
Fa
0  1e-07 4 0

0101000
+11 0 *
Ed
 1e-07 1 1 0
1  8 0 6.02138591938044 6.28318530717959
2  7 2 0 6.02138591938044 6.28318530717959
2  8 2 2 6.02138591938044 6.28318530717959
0

0101000
+14 0 -26 0 *
Wi

0101100
+13 0 -25 0 -9 0 +9 1 *
Fa
0  1e-07 2 0

0101000
+8 0 *
Wi

0101100
+22 0 +17 0 +12 0 +9 0 *
Fa
0  1e-07 5 0

0111000
+6 0 *
Sh

0101100
+20 0 +15 0 +10 0 +7 0 +5 0 -5 1 *
So

0100000
-4 0 *
Ve
1e-07
0 0 0
0 0

0101101
*
Co

1100000
+3 0 +2 0 *

+1 0 