DBRep_DrawableShape

CASCADE Topology V1, (c) Matra-Datavision
Locations 2
1
              1               0               0               0 
              0               1               0               0 
              0               0               1            0.01 
2  1 -1 0
Curve2ds 48
1 6.2831853071795862 0 0 -1 
1 0 0 0 -1 
1 3.1415926535897931 0 0 -1 
1 0.099999999999999992 0 0 -1 
1 -0.053523967432416039 -0.013629188872633792 1 0 
1 0 0 1 0 
1 0 -0.01 1 0 
1 6.0213859193804371 0 0 -1 
1 0.10000000000000001 0 0 -1 
1 0 0 1 0 
1 0 -0.01 1 0 
2 -0.10352396743241604 -0.013629188872633792 1 0 0 -1 0.050000000000000003
1 3.4033920413889422 0 0 -1 
1 0 0 0 -1 
1 0 0 1 0 
1 0 -0.01 1 0 
2 -0.10352396743241604 -0.013629188872633792 -1 0 -0 -1 0.14999999999999999
1 0 0 1 0 
1 0 -0.01 1 0 
1 0.04136490651094421 0.025193667892744319 -0.96592582628906831 -0.25881904510252074 
1 0 0 0 -1 
1 0 0 0 1 
1 -0.010353815879156431 -0.0039681482272887897 0 1 
1 0 0 0 1 
1 0 0 1 0 
1 -0.010353815879156431 -0.0039681482272887897 1 0 
1 0 0 0 -1 
1 0.0060000000000000053 0 0 1 
1 -0.0043538158791564252 -0.0039681482272887897 0 1 
1 0 0 0 1 
1 0 0.0059999999999999984 1 0 
1 -0.010353815879156431 0.0020318517727112087 1 0 
1 0 0 1 0 
1 0 0 1 0 
1 0.040000000000000001 0 0 -1 
1 0 0 0 1 
1 0 -0.0059999999999999984 1 0 
1 0 0 1 0 
1 0 0 1 0 
1 0 0.0060000000000000053 1 0 
1 0.040000000000000001 0 0 1 
1 0 0 1 0 
1 0.040000000000000001 0 0 -1 
1 0.0060000000000000053 0 0 1 
1 0 -0.0059999999999999984 1 0 
1 0 0.0060000000000000053 1 0 
1 0.040000000000000001 0 0 1 
1 0 0.0059999999999999984 1 0 
Curves 20
1 0.050000000000000003 0 0 0 0 1 
1 0.14999999999999999 0 0 0 0 1 
1 0.050000000000000003 0 0 1 0 0 
1 0.04829629131445342 0.012940952255126037 0 0 0 1 
2 0 0 0 -0 -0 -1 1 0 -0 0 -1 0 0.050000000000000003
1 0.14488887394336025 0.038822856765378111 0 0 0 1 
2 0 0 0 -0 -0 1 -1 0 0 -0 -1 -0 0.14999999999999999
1 0.14488887394336025 0.038822856765378111 0 -0.96592582628906831 -0.25881904510252074 0 
1 0.093170151553259611 0.0096610406453450023 0.01 -0 1 0 
1 0.093170151553259611 0.0096610406453450023 0.01 1 0 -0 
1 0.099170151553259617 0.0096610406453450023 0.01 -0 1 0 
1 0.093170151553259611 0.015661040645345001 0.01 1 0 -0 
1 0.093170151553259611 0.0096610406453450023 0.01 0 0 1 
1 0.093170151553259611 0.0096610406453450023 0.050000000000000003 -0 1 0 
1 0.093170151553259611 0.015661040645345001 0.01 0 0 1 
1 0.099170151553259617 0.0096610406453450023 0.01 0 0 1 
1 0.093170151553259611 0.0096610406453450023 0.050000000000000003 1 0 -0 
1 0.099170151553259617 0.0096610406453450023 0.050000000000000003 -0 1 0 
1 0.099170151553259617 0.015661040645345001 0.01 0 0 1 
1 0.093170151553259611 0.015661040645345001 0.050000000000000003 1 0 -0 
Polygon3D 0
PolygonOnTriangulations 0
Surfaces 11
1 0.050000000000000003 0 0 0 1 0 1 0 0 0 0 -1 
2 0 0 0 0 -0 -1 1 0 -0 0 -1 0 0.050000000000000003
2 0 0 0 -0 0 -1 -1 0 0 -0 -1 -0 0.14999999999999999
1 0.10352396743241604 0.013629188872633792 0 0 0 1 1 0 -0 -0 1 0 
1 0.14488887394336025 0.038822856765378111 0 0.25881904510252074 -0.96592582628906831 0 -0.96592582628906831 -0.25881904510252074 0 0 -0 -1 
1 0.093170151553259611 0.0096610406453450023 0.01 1 0 -0 0 0 1 0 -1 0 
1 0.093170151553259611 0.0096610406453450023 0.01 0 0 1 1 0 -0 -0 1 0 
1 0.093170151553259611 0.0096610406453450023 0.01 -0 1 0 0 0 1 1 0 -0 
1 0.099170151553259617 0.0096610406453450023 0.01 1 0 -0 0 0 1 0 -1 0 
1 0.093170151553259611 0.015661040645345001 0.01 -0 1 0 0 0 1 1 0 -0 
1 0.093170151553259611 0.0096610406453450023 0.050000000000000003 0 0 1 1 0 -0 -0 1 0 
Triangulations 0

TShapes 59
Ve
1e-07
0.05 0 0
0 0

0101101
*
Ed
 1e-07 1 1 0
1  1 0 0 0.01
2  1 2 0 0 0.01
2  2 1 0 0 0.01
0

0101000
+59 0 -59 1 *
Ve
1e-07
0.15 0 0
0 0

0101101
*
Ed
 1e-07 1 1 0
1  2 0 0 0.01
2  3 3 0 0 0.01
2  4 1 0 0 0.01
0

0101000
+57 0 -57 1 *
Ed
 1e-07 1 1 0
1  3 0 0 0.1
2  5 4 0 0 0.1
2  6 1 0 0 0.1
2  7 1 2 0 0.1
0

0101000
+59 0 -57 0 *
Wi

0101100
+58 0 -56 0 -55 0 +55 1 *
Fa
0  1e-07 1 0

0101000
+54 0 *
Ve
1e-07
0.0482962913144534 0.012940952255126 0
0 0

0101101
*
Ed
 1e-07 1 1 0
1  4 0 0 0.01
2  8 2 0 0 0.01
2  9 5 0 0 0.01
0

0101000
+52 0 -52 1 *
Ed
 1e-07 1 1 0
1  5 0 6.02138591938044 6.28318530717959
2  10 2 0 6.02138591938044 6.28318530717959
2  11 2 2 6.02138591938044 6.28318530717959
2  12 4 0 6.02138591938044 6.28318530717959
0

0101000
+52 0 -59 0 *
Wi

0101100
+51 0 -58 0 -50 0 +50 1 *
Fa
0  1e-07 2 0

0101000
+49 0 *
Ve
1e-07
0.14488887394336 0.0388228567653781 0
0 0

0101101
*
Ed
 1e-07 1 1 0
1  6 0 0 0.01
2  13 3 0 0 0.01
2  14 5 0 0 0.01
0

0101000
+47 0 -47 1 *
Ed
 1e-07 1 1 0
1  7 0 3.14159265358979 3.40339204138894
2  15 3 0 3.14159265358979 3.40339204138894
2  16 3 2 3.14159265358979 3.40339204138894
2  17 4 0 3.14159265358979 3.40339204138894
0

0101000
+57 0 -47 0 *
Wi

0101100
+56 0 -46 0 -45 0 +45 1 *
Fa
0  1e-07 3 0

0101000
+44 0 *
Ed
 1e-07 1 1 0
1  8 0 0 0.1
2  18 5 0 0 0.1
2  19 5 2 0 0.1
2  20 4 0 0 0.1
0

0101000
+47 0 -52 0 *
Wi

0101100
+55 0 +45 0 +42 0 +50 0 *
Fa
0  1e-07 4 0

0111000
+41 0 *
Wi

0101100
+55 1 +50 1 +45 1 +42 1 *
Ve
1e-07
0.0931701515532596 0.015661040645345 0.01
0 0

0101101
*
Ve
1e-07
0.0931701515532596 0.009661040645345 0.01
0 0

0101101
*
Ed
 1e-07 1 1 0
1  9 0 0 0.006
2  21 6 0 0 0.006
2  22 7 0 0 0.006
2  23 4 1 0 0.006
0

0101000
-38 0 +37 0 *
Ve
1e-07
0.0991701515532596 0.009661040645345 0.01
0 0

0101101
*
Ed
 1e-07 1 1 0
1  10 0 0 0.00600000000000001
2  24 8 0 0 0.00600000000000001
2  25 7 0 0 0.00600000000000001
2  26 4 1 0 0.00600000000000001
0

0101000
-35 0 +37 0 *
Ve
1e-07
0.0991701515532596 0.015661040645345 0.01
0 0

0101101
*
Ed
 1e-07 1 1 0
1  11 0 0 0.006
2  27 9 0 0 0.006
2  28 7 0 0 0.006
2  29 4 1 0 0.006
0

0101000
-33 0 +35 0 *
Ed
 1e-07 1 1 0
1  12 0 0 0.00600000000000001
2  30 10 0 0 0.00600000000000001
2  31 7 0 0 0.00600000000000001
2  32 4 1 0 0.00600000000000001
0

0101000
-33 0 +38 0 *
Wi

0101100
+36 0 -34 0 -32 0 +31 0 *
Fa
0  1e-07 4 1

0101000
+39 0 +30 0 *
Wi

0101100
+46 0 -51 0 -42 0 +42 1 *
Fa
0  1e-07 5 0

0101000
+28 0 *
Ve
1e-07
0.0931701515532596 0.009661040645345 0.05
0 0

0101101
*
Ed
 1e-07 1 1 0
1  13 0 0 0.04
2  33 6 0 0 0.04
2  34 8 0 0 0.04
0

0101000
-26 0 +37 0 *
Ve
1e-07
0.0931701515532596 0.015661040645345 0.05
0 0

0101101
*
Ed
 1e-07 1 1 0
1  14 0 0 0.006
2  35 6 0 0 0.006
2  36 11 0 0 0.006
0

0101000
-24 0 +26 0 *
Ed
 1e-07 1 1 0
1  15 0 0 0.04
2  37 6 0 0 0.04
2  38 10 0 0 0.04
0

0101000
-24 0 +38 0 *
Wi

0101100
-25 0 -23 0 +22 0 +36 0 *
Fa
0  1e-07 6 0

0101000
+21 0 *
Ve
1e-07
0.0991701515532596 0.009661040645345 0.05
0 0

0101101
*
Ed
 1e-07 1 1 0
1  16 0 0 0.04
2  39 9 0 0 0.04
2  40 8 0 0 0.04
0

0101000
-19 0 +35 0 *
Ed
 1e-07 1 1 0
1  17 0 0 0.00600000000000001
2  41 8 0 0 0.00600000000000001
2  42 11 0 0 0.00600000000000001
0

0101000
-19 0 +26 0 *
Wi

0101100
-34 0 -18 0 +17 0 +25 0 *
Fa
0  1e-07 8 0

0101000
+16 0 *
Ve
1e-07
0.0991701515532596 0.015661040645345 0.05
0 0

0101101
*
Ed
 1e-07 1 1 0
1  18 0 0 0.006
2  43 9 0 0 0.006
2  44 11 0 0 0.006
0

0101000
-14 0 +19 0 *
Ed
 1e-07 1 1 0
1  19 0 0 0.04
2  45 9 0 0 0.04
2  46 10 0 0 0.04
0

0101000
-14 0 +33 0 *
Wi

0101100
-18 0 -13 0 +12 0 +32 0 *
Fa
0  1e-07 9 0

0101000
+11 0 *
Ed
 1e-07 1 1 0
1  20 0 0 0.00600000000000001
2  47 10 0 0 0.00600000000000001
2  48 11 0 0 0.00600000000000001
0

0101000
-14 0 +24 0 *
Wi

0101100
-31 0 -12 0 +9 0 +22 0 *
Fa
0  1e-07 10 0

0101000
+8 0 *
Wi

0101100
-23 0 -9 0 +13 0 +17 0 *
Fa
0  1e-07 11 0

0101000
+6 0 *
Sh

0101100
-53 0 -48 0 -43 0 -40 0 +29 0 -27 0 -20 0 -15 0 +10 0 +7 0 
+5 0 *
So

0100000
+4 0 *
Ve
1e-07
0 0 0
0 0

0101101
*
Co

1100000
+3 0 +2 0 *

+1 0 